<?xml version="1.0" encoding="UTF-8" standalone="no"?>
<!DOCTYPE svg PUBLIC "-//W3C//DTD SVG 1.1//EN" "http://www.w3.org/Graphics/SVG/1.1/DTD/svg11.dtd">
<svg width="100%" height="100%" viewBox="0 0 651 220" version="1.1" xmlns="http://www.w3.org/2000/svg" xmlns:xlink="http://www.w3.org/1999/xlink" xml:space="preserve" xmlns:serif="http://www.serif.com/" style="fill-rule:evenodd;clip-rule:evenodd;stroke-linejoin:round;stroke-miterlimit:2;">
    <g id="Logo-path" transform="matrix(0.600717,0,0,0.600717,-40.9155,-37.1243)">
        <g>
            <g>
                <path d="M246.2,428C189.1,428 136.4,402.1 101.4,357C98,352.6 98.8,346.4 103.2,343C107.6,339.6 113.8,340.4 117.2,344.8C148.3,385 195.4,408 246.2,408C289.8,408 330.8,391 361.6,360.3C392.4,329.5 409.4,288.5 409.4,244.9C409.4,239.4 413.9,234.9 419.4,234.9C424.9,234.9 429.4,239.4 429.4,244.9C429.4,293.9 410.4,339.8 375.8,374.4C341.1,409 295.1,428 246.2,428Z" style="fill:rgb(247,95,124);fill-rule:nonzero;"/>
            </g>
            <g>
                <path d="M78.1,213.3C77.3,213.3 76.5,213.2 75.7,213C70.3,211.7 67.1,206.3 68.4,200.9C78,161.8 100.8,126.5 132.4,101.4C165,75.5 204.4,61.8 246.2,61.8C283.2,61.8 318.9,72.8 349.3,93.5C379,113.8 401.9,142 415.6,175.1C417.7,180.2 415.3,186.1 410.2,188.2C405.1,190.3 399.2,187.9 397.1,182.8C371.8,121.5 312.6,81.8 246.2,81.8C209,81.8 173.9,94 144.8,117.1C116.6,139.5 96.3,171 87.8,205.8C86.7,210.2 82.6,213.3 78.1,213.3Z" style="fill:rgb(247,95,124);fill-rule:nonzero;"/>
            </g>
            <g>
                <path d="M191.3,382.1C190,382.1 188.6,381.8 187.3,381.3C132.8,357.8 97.7,304.3 97.7,244.9C97.7,205.2 113.1,167.9 141.2,139.9C169.2,111.9 206.5,96.4 246.2,96.4C285.9,96.4 323.2,111.8 351.2,139.9C379.2,168 394.7,205.2 394.7,244.9C394.7,248.2 394.6,251.6 394.4,254.8C394,260.3 389.3,264.5 383.8,264.1C378.3,263.7 374.1,259 374.5,253.5C374.7,250.7 374.8,247.8 374.8,244.9C374.8,174 317.2,116.4 246.3,116.4C175.4,116.4 117.8,174 117.8,244.9C117.8,296.3 148.2,342.6 195.4,362.9C200.5,365.1 202.8,371 200.6,376C198.8,379.8 195.1,382.1 191.3,382.1Z" style="fill:rgb(22,177,169);fill-rule:nonzero;"/>
            </g>
            <g>
                <path d="M246.2,358.7C240.7,358.7 236.2,354.2 236.2,348.7C236.2,343.2 240.7,338.7 246.2,338.7C294.5,338.7 334.7,302.5 339.6,254.6C340.2,249.1 345.1,245.1 350.6,245.7C356.1,246.3 360.1,251.2 359.5,256.7C356.6,284.6 343.6,310.4 322.8,329.3C301.8,348.3 274.6,358.7 246.2,358.7Z" style="fill:rgb(235,159,71);fill-rule:nonzero;"/>
            </g>
            <g>
                <path d="M165.9,320.8C163,320.8 160.1,319.6 158.2,317.1C141.6,296.8 132.4,271.2 132.4,244.9C132.4,182.1 183.5,131 246.3,131C294.5,131 337.7,161.5 353.7,206.9C355.5,212.1 352.8,217.8 347.6,219.7C342.4,221.5 336.7,218.8 334.8,213.6C321.6,176.2 286,151 246.3,151C194.5,151 152.4,193.1 152.4,244.9C152.4,266.6 160,287.7 173.7,304.5C177.2,308.8 176.6,315.1 172.3,318.6C170.3,320 168.1,320.8 165.9,320.8Z" style="fill:rgb(200,212,43);fill-rule:nonzero;"/>
            </g>
            <g>
                <path d="M246.2,324.1C202.5,324.1 166.9,288.5 166.9,244.8C166.9,213.6 185.3,185.2 213.7,172.5C218.7,170.2 224.7,172.5 226.9,177.5C229.2,182.5 226.9,188.5 221.9,190.7C200.6,200.2 186.9,221.5 186.9,244.8C186.9,277.5 213.5,304.1 246.2,304.1C251.7,304.1 256.2,308.6 256.2,314.1C256.2,319.6 251.7,324.1 246.2,324.1Z" style="fill:rgb(247,95,124);fill-rule:nonzero;"/>
            </g>
        </g>
        <g>
            <path d="M570.6,289.1L540.4,289.1L516.1,253.5L515.7,253.5L515.7,289.1L491.1,289.1L491.1,176.4L515.7,176.4L515.7,245L516.1,245L539.8,214.9L569.5,214.9L540.9,248.4L570.6,289.1Z" style="fill:rgb(11,42,73);fill-rule:nonzero;"/>
            <path d="M625.5,289.1L599.1,289.1L569.9,214.9L596.9,214.9L612.5,263L612.9,263L628.5,214.9L654.6,214.9L625.5,289.1Z" style="fill:rgb(11,42,73);fill-rule:nonzero;"/>
            <path d="M684.8,276C684.8,280.2 683.3,283.6 680.4,286.4C677.5,289.2 674,290.6 669.9,290.6C667.8,290.6 665.9,290.2 664,289.5C662.1,288.8 660.5,287.7 659.2,286.4C657.8,285.1 656.7,283.6 655.9,281.9C655.1,280.2 654.7,278.2 654.7,276.2C654.7,274.2 655.1,272.3 655.9,270.5C656.7,268.7 657.8,267.1 659.2,265.8C660.6,264.5 662.2,263.4 664,262.6C665.8,261.8 667.8,261.4 669.9,261.4C674,261.4 677.5,262.8 680.4,265.6C683.3,268.3 684.8,271.8 684.8,276Z" style="fill:rgb(11,42,73);fill-rule:nonzero;"/>
            <path d="M757.8,289.2L757.8,279.4L757.5,279.4C755.1,283.2 751.7,286.1 747.3,288.1C742.9,290.1 738.2,291.2 733.2,291.2C727.6,291.2 722.7,290.1 718.3,287.9C713.9,285.7 710.2,282.8 707.2,279.2C704.2,275.6 701.9,271.4 700.3,266.6C698.7,261.8 697.9,256.9 697.9,251.7C697.9,246.5 698.7,241.6 700.4,236.9C702,232.2 704.4,228 707.4,224.5C710.4,220.9 714.1,218.1 718.4,216C722.7,213.9 727.6,212.9 732.9,212.9C738.4,212.9 743,213.9 746.8,216C750.6,218.1 753.5,220.4 755.6,222.9L755.9,222.9L755.9,176.6L780.3,176.6L780.3,289.2L757.8,289.2ZM756.9,251.8C756.9,249.4 756.5,247.1 755.6,244.8C754.8,242.5 753.6,240.5 752,238.7C750.5,236.9 748.6,235.5 746.4,234.4C744.2,233.3 741.7,232.8 738.9,232.8C736,232.8 733.5,233.3 731.3,234.4C729.1,235.5 727.3,236.9 725.8,238.6C724.3,240.3 723.2,242.4 722.4,244.6C721.7,246.9 721.3,249.2 721.3,251.6C721.3,254 721.7,256.3 722.4,258.7C723.1,261 724.3,263.1 725.8,264.9C727.3,266.7 729.1,268.1 731.3,269.2C733.5,270.3 736,270.8 738.9,270.8C741.7,270.8 744.2,270.3 746.4,269.2C748.6,268.1 750.4,266.7 752,264.9C753.5,263.1 754.7,261.1 755.6,258.8C756.5,256.6 756.9,254.2 756.9,251.8Z" style="fill:rgb(11,42,73);fill-rule:nonzero;"/>
            <path d="M826.2,191.2C826.2,193.1 825.8,194.9 825.1,196.5C824.4,198.1 823.4,199.6 822.1,200.7C820.9,201.9 819.4,202.8 817.6,203.5C815.9,204.2 814,204.5 812.2,204.5C808.2,204.5 804.9,203.2 802.2,200.6C799.5,198 798.2,194.8 798.2,191.1C798.2,189.3 798.5,187.6 799.2,186C799.9,184.4 800.9,182.9 802.2,181.8C803.5,180.6 805,179.6 806.7,178.9C808.4,178.2 810.2,177.8 812.2,177.8C814.1,177.8 815.9,178.1 817.6,178.8C819.3,179.5 820.8,180.4 822.1,181.6C823.3,182.8 824.3,184.2 825.1,185.8C825.8,187.5 826.2,189.3 826.2,191.2ZM799.9,289.1L799.9,214.9L824.3,214.9L824.3,289.1L799.9,289.1Z" style="fill:rgb(11,42,73);fill-rule:nonzero;"/>
            <path d="M922.4,282.1C922.4,289.3 921.4,295.7 919.3,301C917.2,306.4 914.3,310.8 910.5,314.3C906.7,317.8 902.1,320.5 896.7,322.2C891.3,323.9 885.3,324.8 878.7,324.8C872.1,324.8 865.4,323.8 858.5,321.8C851.6,319.8 845.6,316.9 840.5,313.2L852.7,295.8C856.3,299 860.2,301.3 864.5,302.9C868.8,304.4 873.1,305.2 877.2,305.2C884.4,305.2 889.6,303.3 893.1,299.5C896.5,295.7 898.2,290.7 898.2,284.5L898.2,280L898,280C895.7,283 892.6,285.4 888.8,287.2C885,289 880.5,289.9 875.5,289.9C869.8,289.9 864.8,288.9 860.5,286.8C856.1,284.8 852.4,282 849.4,278.5C846.4,275 844.1,271 842.5,266.4C840.9,261.8 840.1,256.9 840.1,251.7C840.1,246.5 840.9,241.6 842.5,236.9C844.1,232.2 846.4,228.1 849.4,224.5C852.4,220.9 856.1,218.1 860.5,215.9C864.9,213.8 869.8,212.7 875.4,212.7C880.1,212.7 884.5,213.6 888.8,215.5C893.1,217.4 896.5,220.3 899.1,224.3L899.4,224.3L899.4,214.8L922.5,214.8L922.5,282.1L922.4,282.1ZM899.2,251.5C899.2,249 898.8,246.6 897.9,244.3C897.1,242 895.8,240 894.2,238.3C892.6,236.6 890.7,235.2 888.5,234.2C886.3,233.2 883.8,232.7 881.1,232.7C878.3,232.7 875.9,233.2 873.7,234.2C871.6,235.2 869.8,236.5 868.3,238.2C866.8,239.9 865.7,241.9 864.9,244.2C864.1,246.5 863.7,248.9 863.7,251.5C863.7,254 864.1,256.4 864.9,258.7C865.7,261 866.8,263 868.3,264.7C869.8,266.4 871.6,267.8 873.7,268.9C875.8,269.9 878.3,270.5 881.1,270.5C883.9,270.5 886.4,270 888.6,268.9C890.8,267.9 892.7,266.5 894.3,264.8C895.8,263.1 897,261.1 897.9,258.8C898.8,256.6 899.2,254.1 899.2,251.5Z" style="fill:rgb(11,42,73);fill-rule:nonzero;"/>
            <path d="M968.3,191.2C968.3,193.1 967.9,194.9 967.2,196.5C966.5,198.1 965.5,199.6 964.2,200.7C963,201.9 961.5,202.8 959.7,203.5C958,204.2 956.1,204.5 954.3,204.5C950.3,204.5 947,203.2 944.3,200.6C941.6,198 940.3,194.8 940.3,191.1C940.3,189.3 940.6,187.6 941.3,186C942,184.4 943,182.9 944.3,181.8C945.6,180.6 947.1,179.6 948.8,178.9C950.5,178.2 952.3,177.8 954.3,177.8C956.2,177.8 958,178.1 959.7,178.8C961.4,179.5 962.9,180.4 964.2,181.6C965.4,182.8 966.4,184.2 967.2,185.8C967.9,187.5 968.3,189.3 968.3,191.2ZM942.1,289.1L942.1,214.9L966.5,214.9L966.5,289.1L942.1,289.1Z" style="fill:rgb(11,42,73);fill-rule:nonzero;"/>
            <path d="M1012.4,233.1L1012.4,261.5C1012.4,265 1013.1,267.6 1014.4,269.4C1015.7,271.2 1018.1,272 1021.6,272C1022.8,272 1024.1,271.9 1025.4,271.7C1026.7,271.5 1027.9,271.2 1028.8,270.8L1029.1,288.7C1027.4,289.3 1025.3,289.8 1022.7,290.3C1020.1,290.7 1017.5,291 1015,291C1010,291 1005.9,290.4 1002.5,289.1C999.1,287.9 996.4,286.1 994.4,283.7C992.4,281.4 990.9,278.6 990,275.3C989.1,272.1 988.7,268.5 988.7,264.5L988.7,233.1L976.8,233.1L976.8,214.9L988.6,214.9L988.6,195.4L1012.6,195.4L1012.6,214.9L1030,214.9L1030,233.1L1012.4,233.1Z" style="fill:rgb(11,42,73);fill-rule:nonzero;"/>
            <path d="M1040.3,225C1044.7,220.8 1049.8,217.7 1055.6,215.6C1061.4,213.5 1067.3,212.5 1073.4,212.5C1079.7,212.5 1084.9,213.3 1089.3,214.8C1093.6,216.3 1097.1,218.7 1099.8,222C1102.5,225.2 1104.4,229.3 1105.7,234.2C1106.9,239.1 1107.6,245 1107.6,251.7L1107.6,289.1L1085.2,289.1L1085.2,281.2L1084.8,281.2C1082.9,284.3 1080.1,286.7 1076.2,288.4C1072.4,290.1 1068.2,290.9 1063.8,290.9C1060.8,290.9 1057.7,290.5 1054.6,289.7C1051.4,288.9 1048.5,287.6 1045.9,285.8C1043.3,284 1041.1,281.6 1039.4,278.6C1037.7,275.6 1036.9,271.9 1036.9,267.6C1036.9,262.2 1038.4,257.9 1041.3,254.6C1044.2,251.3 1048,248.8 1052.6,247C1057.2,245.2 1062.4,244 1068,243.4C1073.7,242.8 1079.2,242.5 1084.5,242.5L1084.5,241.3C1084.5,237.6 1083.2,234.9 1080.6,233.2C1078,231.5 1074.8,230.6 1071.1,230.6C1067.6,230.6 1064.3,231.3 1061,232.8C1057.8,234.3 1055,236.1 1052.7,238.2L1040.3,225ZM1085.1,256.8L1082,256.8C1079.3,256.8 1076.6,256.9 1073.9,257.2C1071.2,257.4 1068.7,257.9 1066.6,258.6C1064.5,259.3 1062.7,260.3 1061.3,261.7C1059.9,263 1059.2,264.8 1059.2,267C1059.2,268.4 1059.5,269.6 1060.2,270.6C1060.8,271.6 1061.7,272.4 1062.7,273C1063.7,273.6 1064.8,274 1066.1,274.3C1067.4,274.5 1068.6,274.7 1069.8,274.7C1074.8,274.7 1078.6,273.3 1081.2,270.6C1083.8,267.9 1085.1,264.2 1085.1,259.5L1085.1,256.8Z" style="fill:rgb(11,42,73);fill-rule:nonzero;"/>
            <path d="M1125.9,289.1L1125.9,176.4L1150.8,176.4L1150.8,289L1125.9,289L1125.9,289.1Z" style="fill:rgb(11,42,73);fill-rule:nonzero;"/>
        </g>
    </g>
</svg>
