<svg width="184" height="51" viewBox="0 0 184 51" fill="none" xmlns="http://www.w3.org/2000/svg">
<g clip-path="url(#clip0_2_765)">
<path d="M42.9905 20.609V44.2034H55.3455V20.609C53.3575 21.0782 51.2966 21.3527 49.1697 21.3527C47.0428 21.3527 44.9784 21.0782 42.994 20.609H42.9905Z" fill="#3C9BFA"/>
<path d="M49.1697 15.7018C53.2811 15.7018 56.6105 12.3724 56.6105 8.26099C56.6105 4.14961 53.2811 0.82019 49.1697 0.82019C45.0584 0.82019 41.7289 4.14961 41.7289 8.26099C41.7289 12.3724 45.0584 15.7018 49.1697 15.7018Z" fill="#2DCD73"/>
<path d="M31.5982 2.16516H2.29723V13.9815H18.6628L1.9914 34.5731C0.53521 36.3351 0.225901 38.7818 1.19901 40.8532C2.17559 42.9245 4.25735 44.2451 6.54415 44.2451H35.9007V32.4219H19.5039L36.1544 11.8372C37.6106 10.0751 37.9199 7.62499 36.9468 5.55714C35.9702 3.48581 33.8885 2.16516 31.6017 2.16516H31.5982Z" fill="#3C9BFA"/>
<path d="M78.29 12.136H71.009V11.0934L76.8616 3.18345H71.221V2.14084H78.144V3.18345L72.2775 11.0934H78.2865V12.136H78.29Z" fill="#194B5A"/>
<path d="M81.3448 11.7989C80.82 11.4792 80.403 11.0482 80.0867 10.5061C79.7739 9.96393 79.6141 9.36269 79.6141 8.70584C79.6141 8.04899 79.767 7.43385 80.0693 6.89169C80.3752 6.34953 80.7818 5.92206 81.2962 5.6058C81.8105 5.28954 82.3701 5.13315 82.9817 5.13315C83.5934 5.13315 84.1251 5.28259 84.6152 5.57452C85.1052 5.86993 85.4944 6.2835 85.7794 6.81523C86.0644 7.34697 86.2069 7.94821 86.2069 8.61548C86.2069 8.7684 86.1965 8.92132 86.1791 9.07076H80.6115C80.6602 9.49128 80.7957 9.87009 81.0251 10.2142C81.2545 10.5582 81.5464 10.8293 81.9044 11.0274C82.2623 11.2255 82.655 11.3263 83.0825 11.3263C83.8714 11.3263 84.5734 10.9822 85.1816 10.2976L85.8524 10.9127C85.5466 11.295 85.1608 11.6147 84.6951 11.8754C84.2294 12.136 83.6803 12.2681 83.0547 12.2681C82.4291 12.2681 81.8661 12.1082 81.3413 11.7885L81.3448 11.7989ZM85.2268 8.23667C85.1399 7.56939 84.9001 7.04113 84.5005 6.64494C84.1008 6.24875 83.5969 6.05412 82.9887 6.05412C82.589 6.05412 82.2137 6.15144 81.8696 6.34606C81.5221 6.54068 81.2371 6.80481 81.0147 7.13844C80.7922 7.47208 80.6567 7.837 80.608 8.23667H85.2338H85.2268Z" fill="#194B5A"/>
<path d="M87.9272 12.136V5.28259H88.8968V6.38081H88.9107C89.0914 6.0576 89.3834 5.76915 89.79 5.51544C90.1931 5.26174 90.6484 5.13663 91.1523 5.13663C91.6563 5.13663 92.1463 5.26174 92.5668 5.50849C92.9873 5.75525 93.314 6.10278 93.5504 6.55111C93.7867 6.99943 93.9083 7.51379 93.9083 8.09418V12.136H92.9387V8.09418C92.9387 7.49294 92.7614 7.00986 92.4035 6.63799C92.0455 6.26613 91.5937 6.08193 91.0411 6.08193C90.6415 6.08193 90.28 6.17924 89.9568 6.37386C89.6336 6.56849 89.3764 6.83609 89.1853 7.18015C88.9941 7.52422 88.9003 7.90651 88.9003 8.33745V12.136H87.9307H87.9272Z" fill="#194B5A"/>
<path d="M97.1856 11.6843C96.8589 11.3367 96.6921 10.8293 96.6921 10.162V6.22095H95.3645V5.27912H96.2368C96.4071 5.27912 96.5427 5.22351 96.6434 5.11577C96.7442 5.00804 96.7929 4.84122 96.7929 4.62227V2.99579H97.6652V5.27912H99.3508V6.22095H97.6652V10.103C97.6652 10.4748 97.759 10.7598 97.9432 10.9579C98.1274 11.156 98.3846 11.2568 98.7078 11.2568C98.9824 11.2568 99.2743 11.1838 99.5801 11.0413V11.9831C99.4655 12.0387 99.3195 12.0909 99.1388 12.1326C98.9581 12.1743 98.7739 12.1986 98.5827 12.1986C97.9815 12.1986 97.5192 12.0248 97.1891 11.6773L97.1856 11.6843Z" fill="#194B5A"/>
<path d="M101.189 12.1361V5.2826H102.159V6.35302H102.173C102.354 6.04023 102.645 5.75872 103.052 5.51197C103.455 5.26522 103.917 5.14011 104.428 5.14011H104.741V6.14102C104.609 6.12364 104.474 6.11321 104.341 6.11321C103.942 6.11321 103.573 6.214 103.243 6.4121C102.91 6.61367 102.645 6.88822 102.451 7.23924C102.256 7.59025 102.159 7.98645 102.159 8.42434V12.1361H101.189Z" fill="#194B5A"/>
<path d="M110.02 5.48417C110.423 5.71354 110.743 6.0298 110.969 6.43295C111.198 6.83609 111.313 7.3018 111.313 7.82658V12.1395H110.385V11.0413H110.371C110.191 11.3541 109.885 11.6426 109.457 11.8963C109.03 12.1534 108.54 12.282 107.987 12.282C107.539 12.282 107.143 12.1917 106.795 12.0109C106.448 11.8302 106.176 11.5904 105.982 11.2915C105.787 10.9927 105.69 10.6694 105.69 10.3289C105.69 9.77627 105.881 9.31404 106.26 8.93523C106.639 8.55988 107.177 8.31313 107.872 8.19845L110.357 7.78487V7.77097C110.357 7.25662 110.197 6.84305 109.878 6.53026C109.558 6.21748 109.141 6.05761 108.63 6.05761C108.23 6.05761 107.879 6.14449 107.58 6.32174C107.282 6.49898 106.993 6.72836 106.715 7.01334L106.072 6.3982C106.357 6.04718 106.719 5.7483 107.156 5.50502C107.594 5.26174 108.084 5.14011 108.627 5.14011C109.169 5.14011 109.614 5.25479 110.017 5.48417H110.02ZM109.235 11.0934C109.582 10.8919 109.857 10.6208 110.055 10.2732C110.257 9.92571 110.354 9.53647 110.354 9.109V8.62244L108.098 8.99431C107.612 9.08119 107.25 9.23063 107.014 9.44958C106.778 9.66853 106.656 9.93961 106.656 10.2628C106.656 10.586 106.788 10.8432 107.049 11.0622C107.309 11.2811 107.657 11.3888 108.084 11.3888C108.512 11.3888 108.887 11.2881 109.235 11.09V11.0934Z" fill="#194B5A"/>
<path d="M114.542 12.136H113.572V2.14084H114.542V12.136Z" fill="#194B5A"/>
<path d="M116.961 3.59704C116.832 3.47192 116.769 3.32248 116.769 3.14176C116.769 2.96104 116.832 2.80812 116.961 2.68648C117.089 2.56137 117.239 2.50229 117.409 2.50229C117.59 2.50229 117.742 2.56485 117.871 2.68648C118 2.8116 118.062 2.96104 118.062 3.14176C118.062 3.32248 118 3.4754 117.871 3.59704C117.742 3.72215 117.586 3.78123 117.409 3.78123C117.232 3.78123 117.089 3.71867 116.961 3.59704ZM117.895 12.1361H116.926V5.2826H117.895V12.1361Z" fill="#194B5A"/>
<path d="M120.207 12.136V5.28259H121.176V6.38081H121.19C121.371 6.0576 121.663 5.76915 122.069 5.51544C122.472 5.26174 122.928 5.13663 123.432 5.13663C123.936 5.13663 124.426 5.26174 124.846 5.50849C125.267 5.75525 125.593 6.10278 125.83 6.55111C126.066 6.99943 126.188 7.51379 126.188 8.09418V12.136H125.218V8.09418C125.218 7.49294 125.041 7.00986 124.683 6.63799C124.325 6.26613 123.873 6.08193 123.32 6.08193C122.921 6.08193 122.559 6.17924 122.236 6.37386C121.913 6.56849 121.656 6.83609 121.465 7.18015C121.273 7.52422 121.18 7.90651 121.18 8.33745V12.136H120.21H120.207Z" fill="#194B5A"/>
<path d="M128.874 11.9067C128.415 11.6599 128.068 11.3819 127.832 11.0795L128.488 10.4366C128.68 10.6764 128.944 10.8884 129.288 11.0795C129.632 11.2707 129.997 11.3645 130.386 11.3645C130.873 11.3645 131.251 11.2533 131.522 11.0274C131.793 10.8015 131.929 10.52 131.929 10.1794C131.929 9.88398 131.8 9.66156 131.543 9.50864C131.286 9.35572 130.89 9.20281 130.358 9.05336C129.882 8.90045 129.493 8.75796 129.194 8.62589C128.895 8.49383 128.638 8.29921 128.429 8.04203C128.221 7.78485 128.117 7.45816 128.117 7.05849C128.117 6.72486 128.214 6.41555 128.408 6.12362C128.603 5.83168 128.881 5.59883 129.236 5.41811C129.594 5.23739 129.993 5.14703 130.442 5.14703C130.935 5.14703 131.373 5.24087 131.755 5.43201C132.138 5.62316 132.454 5.85254 132.711 6.11667L132.054 6.75961C131.588 6.29391 131.05 6.06106 130.442 6.06106C130.021 6.06106 129.691 6.15837 129.448 6.35299C129.204 6.54761 129.083 6.78394 129.083 7.05849C129.083 7.33305 129.208 7.55895 129.461 7.70839C129.715 7.85783 130.101 8.00727 130.626 8.15671C131.102 8.29921 131.491 8.43822 131.79 8.57724C132.089 8.71625 132.346 8.91435 132.562 9.16805C132.777 9.42523 132.881 9.76234 132.881 10.1829C132.881 10.5652 132.78 10.9127 132.575 11.2324C132.37 11.5522 132.078 11.8059 131.696 11.997C131.314 12.1882 130.872 12.282 130.369 12.282C129.826 12.282 129.326 12.1569 128.871 11.9101L128.874 11.9067Z" fill="#194B5A"/>
<path d="M135.762 11.6843C135.436 11.3367 135.269 10.8293 135.269 10.162V6.22095H133.941V5.27912H134.814C134.984 5.27912 135.119 5.22351 135.22 5.11577C135.321 5.00804 135.37 4.84122 135.37 4.62227V2.99579H136.242V5.27912H137.927V6.22095H136.242V10.103C136.242 10.4748 136.336 10.7598 136.52 10.9579C136.704 11.156 136.961 11.2568 137.285 11.2568C137.559 11.2568 137.851 11.1838 138.157 11.0413V11.9831C138.042 12.0387 137.896 12.0909 137.715 12.1326C137.535 12.1743 137.351 12.1986 137.159 12.1986C136.558 12.1986 136.096 12.0248 135.766 11.6773L135.762 11.6843Z" fill="#194B5A"/>
<path d="M139.874 3.59704C139.745 3.47192 139.683 3.32248 139.683 3.14176C139.683 2.96104 139.745 2.80812 139.874 2.68648C140.002 2.56137 140.152 2.50229 140.322 2.50229C140.503 2.50229 140.656 2.56485 140.784 2.68648C140.913 2.8116 140.975 2.96104 140.975 3.14176C140.975 3.32248 140.913 3.4754 140.784 3.59704C140.656 3.72215 140.499 3.78123 140.322 3.78123C140.145 3.78123 140.002 3.71867 139.874 3.59704ZM140.809 12.1361H139.839V5.2826H140.809V12.1361Z" fill="#194B5A"/>
<path d="M144.214 11.6843C143.888 11.3367 143.721 10.8293 143.721 10.162V6.22095H142.393V5.27912H143.266C143.436 5.27912 143.572 5.22351 143.672 5.11577C143.773 5.00804 143.822 4.84122 143.822 4.62227V2.99579H144.694V5.27912H146.38V6.22095H144.694V10.103C144.694 10.4748 144.788 10.7598 144.972 10.9579C145.156 11.156 145.413 11.2568 145.737 11.2568C146.011 11.2568 146.303 11.1838 146.609 11.0413V11.9831C146.494 12.0387 146.348 12.0909 146.168 12.1326C145.987 12.1743 145.803 12.1986 145.612 12.1986C145.01 12.1986 144.548 12.0248 144.218 11.6773L144.214 11.6843Z" fill="#194B5A"/>
<path d="M149.49 11.9067C149.07 11.6599 148.743 11.3124 148.507 10.8641C148.267 10.4157 148.149 9.90138 148.149 9.32099V5.28259H149.118V9.32447C149.118 9.92571 149.295 10.4088 149.653 10.7807C150.011 11.1525 150.463 11.3367 151.016 11.3367C151.415 11.3367 151.777 11.2394 152.1 11.0448C152.423 10.8502 152.681 10.5791 152.872 10.2385C153.063 9.8979 153.157 9.50866 153.157 9.08119V5.28259H154.126V12.1361H153.157V11.0378H153.143C152.972 11.3506 152.684 11.6391 152.277 11.8928C151.874 12.15 151.412 12.2785 150.901 12.2785C150.39 12.2785 149.907 12.1534 149.487 11.9067H149.49Z" fill="#194B5A"/>
<path d="M157.477 11.6843C157.15 11.3367 156.983 10.8293 156.983 10.162V6.22095H155.655V5.27912H156.528C156.698 5.27912 156.834 5.22351 156.934 5.11577C157.035 5.00804 157.084 4.84122 157.084 4.62227V2.99579H157.956V5.27912H159.642V6.22095H157.956V10.103C157.956 10.4748 158.05 10.7598 158.234 10.9579C158.418 11.156 158.676 11.2568 158.999 11.2568C159.273 11.2568 159.565 11.1838 159.871 11.0413V11.9831C159.756 12.0387 159.61 12.0909 159.43 12.1326C159.249 12.1743 159.065 12.1986 158.874 12.1986C158.272 12.1986 157.81 12.0248 157.48 11.6773L157.477 11.6843Z" fill="#194B5A"/>
<path d="M72.4235 28.175H71.4539V18.1797H72.4235V25.0054L75.8502 21.3215H77.0909L74.4913 24.1053L77.3898 28.175H76.2464L73.8345 24.7899L72.42 26.3191V28.175H72.4235Z" fill="#194B5A"/>
<path d="M82.596 21.523C82.9991 21.7524 83.3188 22.0687 83.5447 22.4718C83.7741 22.875 83.8888 23.3407 83.8888 23.8655V28.1784H82.9609V27.0802H82.947C82.7662 27.393 82.4604 27.6814 82.0329 27.9351C81.6055 28.1923 81.1154 28.3209 80.5629 28.3209C80.1145 28.3209 79.7183 28.2305 79.3708 28.0498C79.0233 27.8691 78.7522 27.6293 78.5576 27.3304C78.3629 27.0315 78.2656 26.7083 78.2656 26.3677C78.2656 25.8152 78.4568 25.3529 78.8356 24.9741C79.2144 24.5988 79.7531 24.352 80.4482 24.2373L82.9331 23.8238V23.8099C82.9331 23.2955 82.7732 22.8819 82.4535 22.5691C82.1337 22.2564 81.7167 22.0965 81.2058 22.0965C80.8061 22.0965 80.4551 22.1834 80.1562 22.3606C79.8574 22.5379 79.5689 22.7672 79.2909 23.0522L78.6479 22.4371C78.9329 22.0861 79.2943 21.7872 79.7322 21.5439C80.1701 21.3006 80.6602 21.179 81.2023 21.179C81.7445 21.179 82.1893 21.2937 82.5925 21.523H82.596ZM81.8105 27.1323C82.1581 26.9307 82.4326 26.6597 82.6307 26.3121C82.8323 25.9646 82.9296 25.5753 82.9296 25.1479V24.6613L80.6741 25.0332C80.1875 25.1201 79.8261 25.2695 79.5897 25.4885C79.3534 25.7074 79.2318 25.9785 79.2318 26.3017C79.2318 26.6249 79.3638 26.8821 79.6245 27.101C79.8852 27.32 80.2327 27.4277 80.6602 27.4277C81.0876 27.4277 81.463 27.3269 81.8105 27.1288V27.1323Z" fill="#194B5A"/>
<path d="M86.5718 27.949C86.113 27.7023 85.7655 27.4243 85.5292 27.1219L86.186 26.479C86.3772 26.7188 86.6413 26.9308 86.9854 27.1219C87.3294 27.313 87.6943 27.4069 88.0836 27.4069C88.5701 27.4069 88.9489 27.2957 89.22 27.0698C89.4911 26.8439 89.6267 26.5624 89.6267 26.2218C89.6267 25.9264 89.4981 25.7039 89.2409 25.551C88.9837 25.3981 88.5875 25.2452 88.0558 25.0958C87.5796 24.9428 87.1904 24.8003 86.8915 24.6683C86.5926 24.5362 86.3355 24.3416 86.1269 24.0844C85.9184 23.8272 85.8142 23.5006 85.8142 23.1009C85.8142 22.7672 85.9115 22.4579 86.1061 22.166C86.3007 21.8741 86.5787 21.6412 86.9332 21.4605C87.2912 21.2798 87.6909 21.1894 88.1392 21.1894C88.6327 21.1894 89.0706 21.2833 89.4529 21.4744C89.8352 21.6655 90.1514 21.8949 90.4086 22.1591L89.7518 22.802C89.2861 22.3363 88.7474 22.1034 88.1392 22.1034C87.7187 22.1034 87.3885 22.2008 87.1452 22.3954C86.9019 22.59 86.7803 22.8263 86.7803 23.1009C86.7803 23.3754 86.9054 23.6013 87.1591 23.7508C87.4128 23.9002 87.7986 24.0497 88.3234 24.1991C88.7995 24.3416 89.1887 24.4806 89.4876 24.6196C89.7865 24.7586 90.0437 24.9567 90.2592 25.2104C90.4746 25.4676 90.5789 25.8047 90.5789 26.2253C90.5789 26.6075 90.4781 26.9551 90.2731 27.2748C90.068 27.5946 89.7761 27.8483 89.3938 28.0394C89.0115 28.2305 88.5701 28.3244 88.0662 28.3244C87.524 28.3244 87.0236 28.1993 86.5683 27.9525L86.5718 27.949Z" fill="#194B5A"/>
<path d="M92.8692 27.949C92.4104 27.7023 92.0629 27.4243 91.8265 27.1219L92.4834 26.479C92.6745 26.7188 92.9387 26.9308 93.2827 27.1219C93.6268 27.313 93.9917 27.4069 94.3809 27.4069C94.8675 27.4069 95.2463 27.2957 95.5174 27.0698C95.7885 26.8439 95.924 26.5624 95.924 26.2218C95.924 25.9264 95.7954 25.7039 95.5382 25.551C95.2811 25.3981 94.8849 25.2452 94.3531 25.0958C93.877 24.9428 93.4878 24.8003 93.1889 24.6683C92.89 24.5362 92.6328 24.3416 92.4243 24.0844C92.2158 23.8272 92.1115 23.5006 92.1115 23.1009C92.1115 22.7672 92.2088 22.4579 92.4035 22.166C92.5981 21.8741 92.8761 21.6412 93.2306 21.4605C93.5886 21.2798 93.9882 21.1894 94.4366 21.1894C94.9301 21.1894 95.368 21.2833 95.7502 21.4744C96.1325 21.6655 96.4488 21.8949 96.706 22.1591L96.0491 22.802C95.5834 22.3363 95.0447 22.1034 94.4366 22.1034C94.016 22.1034 93.6859 22.2008 93.4426 22.3954C93.1993 22.59 93.0777 22.8263 93.0777 23.1009C93.0777 23.3754 93.2028 23.6013 93.4565 23.7508C93.7102 23.9002 94.096 24.0497 94.6207 24.1991C95.0969 24.3416 95.4861 24.4806 95.785 24.6196C96.0839 24.7586 96.3411 24.9567 96.5565 25.2104C96.772 25.4676 96.8763 25.8047 96.8763 26.2253C96.8763 26.6075 96.7755 26.9551 96.5704 27.2748C96.3654 27.5946 96.0735 27.8483 95.6912 28.0394C95.3089 28.2305 94.8675 28.3244 94.3636 28.3244C93.8214 28.3244 93.3209 28.1993 92.8657 27.9525L92.8692 27.949Z" fill="#194B5A"/>
<path d="M99.9207 27.8413C99.396 27.5216 98.9789 27.0906 98.6627 26.5485C98.3499 26.0063 98.19 25.4051 98.19 24.7482C98.19 24.0914 98.3429 23.4762 98.6453 22.9341C98.9511 22.3919 99.3577 21.9644 99.8721 21.6482C100.386 21.3319 100.946 21.1755 101.558 21.1755C102.169 21.1755 102.701 21.325 103.191 21.6169C103.681 21.9123 104.07 22.3259 104.355 22.8576C104.64 23.3894 104.783 23.9906 104.783 24.6579C104.783 24.8108 104.772 24.9637 104.755 25.1131H99.1874C99.2361 25.5337 99.3716 25.9125 99.601 26.2565C99.8304 26.6006 100.122 26.8717 100.48 27.0698C100.838 27.2679 101.231 27.3687 101.658 27.3687C102.447 27.3687 103.149 27.0246 103.758 26.34L104.428 26.9551C104.122 27.3374 103.737 27.6571 103.271 27.9178C102.805 28.1784 102.256 28.3105 101.631 28.3105C101.005 28.3105 100.442 28.1506 99.9173 27.8309L99.9207 27.8413ZM103.803 24.2791C103.716 23.6118 103.476 23.0835 103.076 22.6873C102.677 22.2911 102.173 22.0965 101.565 22.0965C101.165 22.0965 100.79 22.1938 100.446 22.3884C100.098 22.5831 99.813 22.8472 99.5906 23.1808C99.3682 23.5145 99.2326 23.8794 99.184 24.2791H103.81H103.803Z" fill="#194B5A"/>
<path d="M106.503 28.175V21.3215H107.473V22.4197H107.487C107.667 22.0965 107.959 21.8081 108.366 21.5544C108.769 21.3007 109.224 21.1755 109.728 21.1755C110.232 21.1755 110.722 21.3007 111.143 21.5474C111.563 21.7942 111.89 22.1417 112.126 22.59C112.363 23.0383 112.484 23.5527 112.484 24.1331V28.175H111.515V24.1331C111.515 23.5318 111.337 23.0488 110.979 22.6769C110.621 22.305 110.17 22.1208 109.617 22.1208C109.217 22.1208 108.856 22.2182 108.533 22.4128C108.21 22.6074 107.952 22.875 107.761 23.2191C107.57 23.5631 107.476 23.9454 107.476 24.3764V28.175H106.507H106.503Z" fill="#194B5A"/>
<path d="M118.531 21.523C118.935 21.7524 119.254 22.0687 119.48 22.4718C119.71 22.875 119.824 23.3407 119.824 23.8655V28.1784H118.896V27.0802H118.882C118.702 27.393 118.396 27.6814 117.968 27.9351C117.541 28.1923 117.051 28.3209 116.498 28.3209C116.05 28.3209 115.654 28.2305 115.306 28.0498C114.959 27.8691 114.688 27.6293 114.493 27.3304C114.298 27.0315 114.201 26.7083 114.201 26.3677C114.201 25.8151 114.392 25.3529 114.771 24.9741C115.15 24.5988 115.689 24.352 116.384 24.2373L118.869 23.8238V23.8099C118.869 23.2955 118.709 22.8819 118.389 22.5691C118.069 22.2564 117.652 22.0965 117.141 22.0965C116.742 22.0965 116.391 22.1834 116.092 22.3606C115.793 22.5379 115.504 22.7672 115.226 23.0522L114.583 22.4371C114.868 22.0861 115.23 21.7872 115.668 21.5439C116.106 21.3006 116.596 21.179 117.138 21.179C117.68 21.179 118.125 21.2937 118.528 21.523H118.531ZM117.746 27.1323C118.094 26.9307 118.368 26.6597 118.566 26.3121C118.768 25.9646 118.865 25.5753 118.865 25.1479V24.6613L116.61 25.0332C116.123 25.1201 115.762 25.2695 115.525 25.4885C115.289 25.7074 115.167 25.9785 115.167 26.3017C115.167 26.6249 115.299 26.8821 115.56 27.101C115.821 27.32 116.168 27.4277 116.596 27.4277C117.023 27.4277 117.398 27.3269 117.746 27.1288V27.1323ZM115.56 19.6359C115.431 19.5108 115.369 19.3614 115.369 19.1806C115.369 18.9999 115.431 18.847 115.56 18.7254C115.689 18.6003 115.838 18.5412 116.008 18.5412C116.189 18.5412 116.342 18.6037 116.471 18.7254C116.599 18.8505 116.662 18.9999 116.662 19.1806C116.662 19.3614 116.596 19.5143 116.471 19.6359C116.342 19.761 116.186 19.8201 116.008 19.8201C115.831 19.8201 115.689 19.7576 115.56 19.6359ZM118.208 19.6359C118.076 19.5108 118.007 19.3614 118.007 19.1806C118.007 18.9999 118.073 18.847 118.208 18.7254C118.34 18.6003 118.493 18.5412 118.664 18.5412C118.834 18.5412 118.983 18.6037 119.112 18.7254C119.24 18.8505 119.303 18.9999 119.303 19.1806C119.303 19.3614 119.24 19.5143 119.112 19.6359C118.983 19.761 118.834 19.8201 118.664 19.8201C118.493 19.8201 118.34 19.7576 118.208 19.6359Z" fill="#194B5A"/>
<path d="M122.007 28.1749V21.3215H122.976V22.3919H122.99C123.171 22.0791 123.463 21.7976 123.87 21.5509C124.273 21.3041 124.735 21.179 125.246 21.179H125.559V22.1799C125.427 22.1625 125.291 22.1521 125.159 22.1521C124.759 22.1521 124.391 22.2529 124.061 22.451C123.727 22.6525 123.463 22.9271 123.268 23.2781C123.074 23.6291 122.976 24.0253 122.976 24.4632V28.1749H122.007Z" fill="#194B5A"/>
<path d="M131.988 28.1749H126.462V27.2331L130.633 22.2633H126.608V21.3215H131.849V22.2633L127.679 27.2331H131.992V28.1749H131.988Z" fill="#194B5A"/>
<path d="M134.751 27.7266C134.424 27.3791 134.258 26.8717 134.258 26.2044V22.2633H132.93V21.3215H133.802C133.973 21.3215 134.108 21.2659 134.209 21.1581C134.31 21.0504 134.358 20.8836 134.358 20.6646V19.0381H135.231V21.3215H136.916V22.2633H135.231V26.1453C135.231 26.5172 135.324 26.8022 135.509 27.0003C135.693 27.1984 135.95 27.2991 136.273 27.2991C136.548 27.2991 136.84 27.2262 137.146 27.0837V28.0255C137.031 28.0811 136.885 28.1332 136.704 28.1749C136.523 28.2166 136.339 28.241 136.148 28.241C135.547 28.241 135.085 28.0672 134.755 27.7197L134.751 27.7266Z" fill="#194B5A"/>
<path d="M139.797 28.175H138.828V18.1797H139.797V28.175Z" fill="#194B5A"/>
<path d="M142.216 19.6394C142.088 19.5143 142.025 19.3648 142.025 19.1841C142.025 19.0034 142.088 18.8505 142.216 18.7288C142.345 18.6037 142.494 18.5446 142.664 18.5446C142.845 18.5446 142.998 18.6072 143.127 18.7288C143.255 18.854 143.318 19.0034 143.318 19.1841C143.318 19.3648 143.255 19.5178 143.127 19.6394C142.998 19.7645 142.842 19.8236 142.664 19.8236C142.487 19.8236 142.345 19.761 142.216 19.6394ZM143.151 28.1784H142.181V21.325H143.151V28.1784Z" fill="#194B5A"/>
<path d="M146.713 27.8413C146.185 27.5216 145.765 27.0906 145.455 26.5485C145.146 26.0063 144.993 25.4051 144.993 24.7482C144.993 24.0914 145.149 23.4901 145.455 22.948C145.761 22.4058 146.185 21.9749 146.713 21.6551C147.242 21.3354 147.815 21.1755 148.434 21.1755C149.052 21.1755 149.615 21.3146 150.098 21.5961C150.578 21.8776 150.957 22.2042 151.235 22.5726L150.522 23.1565C149.959 22.4614 149.264 22.1139 148.437 22.1139C147.989 22.1139 147.579 22.2286 147.203 22.458C146.828 22.6873 146.529 23.0036 146.303 23.4067C146.081 23.8099 145.97 24.2547 145.97 24.7413C145.97 25.2278 146.081 25.6727 146.303 26.0758C146.526 26.479 146.828 26.7952 147.203 27.0246C147.579 27.254 147.992 27.3687 148.437 27.3687C148.882 27.3687 149.313 27.2644 149.664 27.0559C150.015 26.8474 150.31 26.5937 150.55 26.2983L151.263 26.8821C150.988 27.2644 150.602 27.5946 150.112 27.883C149.622 28.168 149.063 28.3105 148.434 28.3105C147.805 28.3105 147.242 28.1506 146.713 27.8309V27.8413Z" fill="#194B5A"/>
<path d="M152.945 28.175V18.1797H153.914V22.4197H153.928C154.109 22.0965 154.401 21.808 154.807 21.5543C155.211 21.3006 155.666 21.1755 156.17 21.1755C156.674 21.1755 157.164 21.3006 157.584 21.5474C158.005 21.7941 158.331 22.1417 158.568 22.59C158.804 23.0383 158.926 23.5527 158.926 24.1331V28.175H157.956V24.1331C157.956 23.5318 157.779 23.0488 157.421 22.6769C157.063 22.305 156.608 22.1208 156.059 22.1208C155.659 22.1208 155.297 22.2181 154.974 22.4128C154.651 22.6074 154.394 22.875 154.203 23.2191C154.012 23.5631 153.918 23.9454 153.918 24.3764V28.175H152.948H152.945Z" fill="#194B5A"/>
<path d="M162.37 27.8413C161.845 27.5216 161.428 27.0906 161.112 26.5485C160.799 26.0063 160.639 25.4051 160.639 24.7482C160.639 24.0914 160.792 23.4762 161.094 22.9341C161.4 22.3919 161.807 21.9644 162.321 21.6482C162.836 21.3319 163.395 21.1755 164.007 21.1755C164.618 21.1755 165.15 21.325 165.64 21.6169C166.13 21.9123 166.52 22.3259 166.804 22.8576C167.089 23.3894 167.232 23.9906 167.232 24.6579C167.232 24.8108 167.222 24.9637 167.204 25.1131H161.637C161.685 25.5337 161.821 25.9125 162.05 26.2565C162.28 26.6006 162.571 26.8717 162.929 27.0698C163.287 27.2679 163.68 27.3687 164.108 27.3687C164.897 27.3687 165.599 27.0246 166.207 26.34L166.877 26.9551C166.572 27.3374 166.186 27.6571 165.72 27.9178C165.254 28.1784 164.705 28.3105 164.08 28.3105C163.454 28.3105 162.891 28.1506 162.366 27.8309L162.37 27.8413ZM166.252 24.2791C166.165 23.6118 165.925 23.0835 165.526 22.6873C165.126 22.2911 164.622 22.0965 164.014 22.0965C163.614 22.0965 163.239 22.1938 162.895 22.3884C162.547 22.5831 162.262 22.8472 162.04 23.1808C161.817 23.5145 161.682 23.8794 161.633 24.2791H166.259H166.252Z" fill="#194B5A"/>
<path d="M75.6765 44.2173H74.4914L70.6233 34.2221H71.7667L75.0787 42.9036H75.1065L78.4325 34.2221H79.5481L75.68 44.2173H75.6765Z" fill="#194B5A"/>
<path d="M82.304 43.8837C81.7793 43.5639 81.3622 43.133 81.046 42.5908C80.7332 42.0487 80.5733 41.4474 80.5733 40.7906C80.5733 40.1337 80.7262 39.5186 81.0286 38.9764C81.3344 38.4343 81.741 38.0068 82.2554 37.6905C82.7697 37.3743 83.3293 37.2179 83.941 37.2179C84.5526 37.2179 85.0844 37.3673 85.5744 37.6593C86.0644 37.9547 86.4537 38.3682 86.7386 38.9C87.0236 39.4317 87.1661 40.033 87.1661 40.7002C87.1661 40.8531 87.1557 41.0061 87.1383 41.1555H81.5707C81.6194 41.576 81.7549 41.9548 81.9843 42.2989C82.2137 42.643 82.5056 42.9141 82.8636 43.1121C83.2215 43.3102 83.6143 43.411 84.0417 43.411C84.8307 43.411 85.5327 43.067 86.1409 42.3823L86.8116 42.9975C86.5058 43.3798 86.12 43.6995 85.6543 43.9601C85.1886 44.2208 84.6395 44.3529 84.0139 44.3529C83.3884 44.3529 82.8254 44.193 82.3006 43.8733L82.304 43.8837ZM86.1861 40.3214C86.0992 39.6541 85.8594 39.1259 85.4597 38.7297C85.06 38.3335 84.5561 38.1389 83.9479 38.1389C83.5482 38.1389 83.1729 38.2362 82.8288 38.4308C82.4813 38.6254 82.1963 38.8896 81.9739 39.2232C81.7515 39.5568 81.6159 39.9217 81.5673 40.3214H86.193H86.1861Z" fill="#194B5A"/>
<path d="M88.8829 44.2173V37.3638H89.8526V38.4343H89.8665C90.0472 38.1215 90.3391 37.84 90.7457 37.5932C91.1489 37.3465 91.6111 37.2213 92.122 37.2213H92.4348V38.2223C92.3027 38.2049 92.1672 38.1945 92.0351 38.1945C91.6354 38.1945 91.267 38.2952 90.9369 38.4933C90.6032 38.6949 90.3391 38.9695 90.1445 39.3205C89.9499 39.6715 89.8526 40.0677 89.8526 40.5056V44.2173H88.8829V44.2173Z" fill="#194B5A"/>
<path d="M94.3532 43.9879C93.8944 43.7412 93.5469 43.4631 93.3105 43.1608L93.9674 42.5178C94.1585 42.7576 94.4227 42.9696 94.7667 43.1608C95.1108 43.3519 95.4757 43.4458 95.865 43.4458C96.3515 43.4458 96.7303 43.3345 97.0014 43.1086C97.2725 42.8827 97.408 42.6012 97.408 42.2607C97.408 41.9652 97.2794 41.7428 97.0223 41.5899C96.7651 41.437 96.3689 41.2841 95.8372 41.1346C95.361 40.9817 94.9718 40.8392 94.6729 40.7072C94.374 40.5751 94.1168 40.3805 93.9083 40.1233C93.6998 39.8661 93.5955 39.5394 93.5955 39.1398C93.5955 38.8061 93.6928 38.4968 93.8875 38.2049C94.0821 37.913 94.3601 37.6801 94.7146 37.4994C95.0726 37.3187 95.4722 37.2283 95.9206 37.2283C96.4141 37.2283 96.852 37.3221 97.2343 37.5133C97.6165 37.7044 97.9328 37.9338 98.19 38.1979L97.5331 38.8409C97.0674 38.3752 96.5288 38.1423 95.9206 38.1423C95.5 38.1423 95.1699 38.2396 94.9266 38.4343C94.6833 38.6289 94.5617 38.8652 94.5617 39.1398C94.5617 39.4143 94.6868 39.6402 94.9405 39.7897C95.1942 39.9391 95.58 40.0885 96.1048 40.238C96.5809 40.3805 96.9701 40.5195 97.269 40.6585C97.5679 40.7975 97.8251 40.9956 98.0405 41.2493C98.256 41.5065 98.3603 41.8436 98.3603 42.2641C98.3603 42.6464 98.2595 42.994 98.0545 43.3137C97.8494 43.6334 97.5575 43.8871 97.1752 44.0783C96.7929 44.2694 96.3515 44.3633 95.8476 44.3633C95.3054 44.3633 94.805 44.2381 94.3497 43.9914L94.3532 43.9879Z" fill="#194B5A"/>
<path d="M101.419 43.8837C100.887 43.5639 100.463 43.133 100.147 42.5908C99.8338 42.0487 99.674 41.4474 99.674 40.7906C99.674 40.1337 99.8303 39.5325 100.147 38.9903C100.459 38.4482 100.883 38.0172 101.419 37.6975C101.95 37.3778 102.531 37.2179 103.16 37.2179C103.789 37.2179 104.369 37.3778 104.901 37.6975C105.433 38.0172 105.857 38.4482 106.173 38.9903C106.486 39.5325 106.646 40.1337 106.646 40.7906C106.646 41.4474 106.489 42.0487 106.173 42.5908C105.86 43.133 105.436 43.5639 104.901 43.8837C104.369 44.2034 103.785 44.3633 103.16 44.3633C102.534 44.3633 101.95 44.2034 101.419 43.8837V43.8837ZM104.425 43.0774C104.811 42.848 105.116 42.5318 105.339 42.1286C105.561 41.7255 105.672 41.2806 105.672 40.7941C105.672 40.3075 105.561 39.8627 105.339 39.4595C105.116 39.0564 104.811 38.7401 104.425 38.5107C104.039 38.2814 103.619 38.1667 103.16 38.1667C102.701 38.1667 102.28 38.2814 101.895 38.5107C101.509 38.7401 101.203 39.0564 100.981 39.4595C100.758 39.8627 100.647 40.3075 100.647 40.7941C100.647 41.2806 100.758 41.7255 100.981 42.1286C101.203 42.5318 101.509 42.848 101.895 43.0774C102.28 43.3068 102.701 43.4215 103.16 43.4215C103.619 43.4215 104.039 43.3068 104.425 43.0774Z" fill="#194B5A"/>
<path d="M108.428 44.2173V37.3638H109.398V38.4343H109.412C109.593 38.1215 109.885 37.84 110.291 37.5932C110.694 37.3465 111.157 37.2213 111.668 37.2213H111.98V38.2223C111.848 38.2049 111.713 38.1945 111.581 38.1945C111.181 38.1945 110.813 38.2952 110.482 38.4933C110.149 38.6949 109.885 38.9695 109.69 39.3205C109.495 39.6715 109.398 40.0677 109.398 40.5056V44.2173H108.428V44.2173Z" fill="#194B5A"/>
<path d="M114.396 46.7648C113.854 46.4659 113.464 46.1392 113.224 45.7882L113.923 45.1452C114.104 45.4198 114.403 45.677 114.816 45.9168C115.23 46.1531 115.671 46.2747 116.137 46.2747C116.822 46.2747 117.378 46.0384 117.809 45.5623C118.236 45.0861 118.451 44.478 118.451 43.7342V42.7785H118.438C118.201 43.1782 117.861 43.4944 117.423 43.7273C116.985 43.9601 116.523 44.0783 116.04 44.0783C115.477 44.0783 114.959 43.9323 114.483 43.6369C114.006 43.3415 113.628 42.9314 113.346 42.4101C113.065 41.8853 112.926 41.3015 112.926 40.655C112.926 40.0086 113.065 39.4213 113.346 38.9C113.628 38.3752 114.006 37.9686 114.483 37.6732C114.959 37.3777 115.477 37.2318 116.04 37.2318C116.603 37.2318 117.068 37.3638 117.496 37.6315C117.923 37.8991 118.239 38.1945 118.438 38.5177H118.451V37.3743H119.421V43.7412C119.421 44.398 119.279 44.9888 118.994 45.5171C118.709 46.0454 118.316 46.4624 117.815 46.7648C117.315 47.0706 116.755 47.22 116.137 47.22C115.518 47.22 114.938 47.0706 114.396 46.7717V46.7648ZM117.315 42.8098C117.663 42.5943 117.937 42.3024 118.142 41.9235C118.347 41.5482 118.448 41.1207 118.448 40.6446C118.448 40.1685 118.347 39.741 118.142 39.3587C117.937 38.9799 117.663 38.6845 117.315 38.4725C116.967 38.264 116.578 38.1597 116.151 38.1597C115.723 38.1597 115.362 38.264 115.014 38.4725C114.667 38.681 114.392 38.9764 114.194 39.3587C113.993 39.741 113.895 40.1685 113.895 40.6446C113.895 41.1207 113.996 41.5447 114.194 41.9235C114.396 42.2989 114.667 42.5943 115.014 42.8098C115.362 43.0252 115.741 43.1295 116.151 43.1295C116.561 43.1295 116.967 43.0218 117.315 42.8098Z" fill="#194B5A"/>
<path d="M122.949 43.9879C122.528 43.7412 122.201 43.3936 121.965 42.9453C121.725 42.497 121.607 41.9826 121.607 41.4022V37.3604H122.577V41.4022C122.577 42.0035 122.754 42.4865 123.112 42.8584C123.47 43.2303 123.922 43.4145 124.474 43.4145C124.874 43.4145 125.235 43.3172 125.559 43.1225C125.882 42.9279 126.139 42.6568 126.33 42.3163C126.521 41.9757 126.615 41.5864 126.615 41.1589V37.3604H127.585V44.2138H126.615V43.1156H126.601C126.431 43.4284 126.143 43.7168 125.736 43.9705C125.333 44.2277 124.871 44.3563 124.36 44.3563C123.849 44.3563 123.366 44.2312 122.945 43.9844L122.949 43.9879Z" fill="#194B5A"/>
<path d="M129.844 44.2173V37.3639H130.813V38.4621H130.827C131.008 38.1389 131.3 37.8504 131.707 37.5967C132.11 37.343 132.565 37.2179 133.069 37.2179C133.573 37.2179 134.063 37.343 134.483 37.5898C134.904 37.8365 135.231 38.1841 135.467 38.6324C135.703 39.0807 135.825 39.5951 135.825 40.1754V44.2173H134.855V40.1754C134.855 39.5742 134.678 39.0911 134.32 38.7193C133.962 38.3474 133.51 38.1632 132.958 38.1632C132.558 38.1632 132.197 38.2605 131.873 38.4551C131.55 38.6498 131.293 38.9174 131.102 39.2614C130.911 39.6055 130.817 39.9878 130.817 40.4187V44.2173H129.847H129.844Z" fill="#194B5A"/>
<path d="M139.012 46.7648C138.47 46.4659 138.08 46.1392 137.841 45.7882L138.539 45.1452C138.72 45.4198 139.019 45.677 139.432 45.9168C139.846 46.1531 140.287 46.2747 140.753 46.2747C141.438 46.2747 141.994 46.0384 142.425 45.5623C142.852 45.0861 143.068 44.478 143.068 43.7342V42.7785H143.054C142.817 43.1782 142.477 43.4944 142.039 43.7273C141.601 43.9601 141.139 44.0783 140.656 44.0783C140.093 44.0783 139.575 43.9323 139.099 43.6369C138.623 43.3415 138.244 42.9314 137.962 42.4101C137.681 41.8853 137.542 41.3015 137.542 40.655C137.542 40.0086 137.681 39.4213 137.962 38.9C138.244 38.3752 138.623 37.9686 139.099 37.6732C139.575 37.3777 140.093 37.2318 140.656 37.2318C141.219 37.2318 141.684 37.3638 142.112 37.6315C142.539 37.8991 142.856 38.1945 143.054 38.5177H143.068V37.3743H144.037V43.7412C144.037 44.398 143.895 44.9888 143.61 45.5171C143.325 46.0454 142.932 46.4624 142.432 46.7648C141.931 47.0706 141.372 47.22 140.753 47.22C140.134 47.22 139.554 47.0706 139.012 46.7717V46.7648ZM141.931 42.8098C142.279 42.5943 142.553 42.3024 142.758 41.9235C142.963 41.5482 143.064 41.1207 143.064 40.6446C143.064 40.1685 142.963 39.741 142.758 39.3587C142.553 38.9799 142.279 38.6845 141.931 38.4725C141.584 38.264 141.194 38.1597 140.767 38.1597C140.339 38.1597 139.978 38.264 139.63 38.4725C139.283 38.681 139.008 38.9764 138.81 39.3587C138.609 39.741 138.511 40.1685 138.511 40.6446C138.511 41.1207 138.612 41.5447 138.81 41.9235C139.012 42.2989 139.283 42.5943 139.63 42.8098C139.978 43.0252 140.357 43.1295 140.767 43.1295C141.177 43.1295 141.584 43.0218 141.931 42.8098Z" fill="#194B5A"/>
</g>
<defs>
<clipPath id="clip0_2_765">
<rect width="168" height="47.7796" fill="white"/>
</clipPath>
</defs>
</svg>
